# xmcd
#
# Track frame offsets:
#	150
#	16009
#	30747
#	47013
#	61980
#	73647
#	88013
#	100670
#	113993
#	127759
#	140126
#	160043
#	172713
#	187225
#	200108
#	227557
#
# Disc length: 3042 seconds
#
# Revision: 2
# Processed by: cddbd v1.5.2PL0 Copyright (c) Steve Scherf et al.
# Submitted via: audiograbber 1.83.01
#
DISCID=d20be010
DTITLE=TT-242 - Top Tunes Classic Country (TT) 
DYEAR=2001
DGENRE=Karaoke
TTITLE0=The Oak Ridge Boys - Sail Away (TT) 
TTITLE1=Bob Wills and His Texas Playboys - San Antonio Rose (TT) 
TTITLE2=Emmylou Harris - Save The Last Dance For Me (TT) 
TTITLE3=Rosanne Cash - Seven Year Ache (TT) 
TTITLE4=Charlie Rich - She Called Me Baby (TT) 
TTITLE5=Patsy Cline - She's Got You (TT) 
TTITLE6=Marty Robbins - Singing The Blues (TT) 
TTITLE7=Tennessee Ernie Ford - Sixteen Tons (TT) 
TTITLE8=Glenn Campbell - Southern Nights (TT) 
TTITLE9=Tammy Wynette - Stand By Your Man (TT) 
TTITLE10=Johnny Cash - Sunday Morning Comin' Down (TT) 
TTITLE11=Patsy Cline - Sweet Dreams (Of You) (TT) 
TTITLE12=John Denver - Take Me Home, Country Roads (TT) 
TTITLE13=Johnny Paycheck - Take This Job And Shove It (TT) 
TTITLE14=Pee Wee King - Tennessee Waltz (TT) 
TTITLE15=N/A Data Track - Data Track
EXTD=
EXTT0=
EXTT1=
EXTT2=
EXTT3=
EXTT4=
EXTT5=
EXTT6=
EXTT7=
EXTT8=
EXTT9=
EXTT10=
EXTT11=
EXTT12=
EXTT13=
EXTT14=
EXTT15=
PLAYORDER=
